<?xml version="1.0" standalone="no"?>
<!DOCTYPE svg PUBLIC "-//W3C//DTD SVG 20010904//EN"
 "http://www.w3.org/TR/2001/REC-SVG-20010904/DTD/svg10.dtd">
<svg version="1.0" xmlns="http://www.w3.org/2000/svg"
 width="769.000000pt" height="400.000000pt" viewBox="0 0 769.000000 400.000000"
 preserveAspectRatio="xMidYMid meet">

<g transform="translate(0.000000,400.000000) scale(0.100000,-0.100000)"
fill="#000000" stroke="none">
<path d="M1746 2958 c-9 -89 -7 -248 3 -248 12 0 21 79 21 196 0 115 -14 146
-24 52z"/>
<path d="M1307 2894 c-4 -59 -7 -160 -7 -224 l0 -118 -52 -6 c-29 -3 -136 -13
-238 -22 -102 -9 -186 -17 -187 -18 -4 -3 37 -299 42 -304 3 -3 98 2 211 12
113 9 209 15 212 12 3 -3 0 -261 -5 -573 -6 -313 -9 -570 -7 -571 4 -5 298
-20 303 -16 2 2 11 269 20 593 10 325 20 593 23 596 3 3 42 8 87 12 l81 6 0
52 c0 29 -3 100 -7 160 l-6 107 -75 -6 -75 -7 5 200 5 199 -136 7 c-75 3 -148
8 -162 11 l-26 5 -6 -107z"/>
<path d="M4240 2896 c0 -14 5 -26 10 -26 6 0 10 9 10 19 0 11 -4 23 -10 26 -6
4 -10 -5 -10 -19z"/>
<path d="M3923 2887 l-123 -9 5 -42 c3 -22 8 -58 10 -78 3 -20 2 -39 -2 -41
-5 -3 -99 -8 -211 -12 l-203 -8 5 -26 c3 -14 8 -73 11 -131 3 -58 9 -118 12
-134 l5 -28 209 7 209 7 2 -36 c1 -20 2 -43 2 -51 1 -11 -26 -25 -86 -45 -277
-93 -398 -214 -466 -465 -26 -94 -22 -264 7 -337 46 -116 157 -205 306 -243
157 -40 308 7 425 131 64 69 111 156 135 249 23 88 38 239 32 311 -5 73 -6 73
79 50 180 -48 266 -135 250 -252 -8 -59 -37 -115 -107 -203 -32 -40 -57 -77
-54 -81 3 -4 62 -50 132 -101 l126 -93 55 59 c124 133 197 382 163 557 -33
165 -143 287 -346 384 -105 49 -192 74 -264 74 -56 0 -56 0 -65 68 l-6 42 67
0 c38 0 73 4 79 8 7 5 7 51 -2 157 -7 83 -13 151 -13 153 -1 1 -14 2 -31 2
-33 0 -40 -14 -13 -24 12 -5 14 -9 5 -18 -9 -9 -15 -9 -23 -1 -9 9 -17 6 -30
-11 -26 -33 -289 -698 -289 -730 0 -40 41 -62 88 -48 22 7 40 8 46 2 15 -15
-11 -63 -60 -111 -51 -50 -55 -75 -23 -159 31 -80 24 -174 -16 -231 -45 -63
-94 -98 -157 -111 -48 -10 -67 -9 -135 7 -43 11 -80 22 -83 26 -3 3 -25 18
-50 34 -73 44 -109 85 -125 139 -21 71 -19 103 14 171 42 85 56 99 146 147
l80 43 0 77 c1 90 15 123 65 148 30 15 43 16 88 8 29 -6 54 -9 56 -7 2 2 65
142 139 311 122 276 134 310 124 333 -7 14 -18 25 -24 25 -7 0 -13 7 -13 15 0
18 12 19 27 4 8 -8 13 -7 18 1 5 8 1 16 -9 22 -20 11 -21 32 -2 25 14 -6 15
13 7 76 -1 8 -31 7 -198 -6z"/>
<path d="M4521 2746 c-41 -202 -76 -404 -69 -411 5 -5 310 -47 313 -42 1 1 6
29 12 62 5 33 27 149 47 259 21 109 34 202 29 206 -4 4 -74 23 -154 42 l-146
34 -32 -150z"/>
<path d="M7124 2824 c-9 -22 -90 -235 -180 -474 -90 -239 -169 -446 -175 -459
-5 -13 -6 -27 -2 -31 14 -14 345 -130 353 -125 5 3 14 22 21 43 6 20 88 237
180 481 93 244 169 447 169 450 0 5 -264 122 -333 147 -13 5 -21 -3 -33 -32z"/>
<path d="M4975 2768 c-32 -144 -84 -415 -97 -512 l-13 -98 -37 5 c-35 5 -37 4
-27 -15 18 -33 40 -34 69 -2 22 26 29 50 48 170 13 76 38 211 57 299 35 162
42 225 26 225 -5 0 -17 -33 -26 -72z"/>
<path d="M2064 2807 c-2 -7 -3 -78 -2 -157 l3 -145 43 -3 42 -3 0 44 c0 33 6
49 25 67 l24 23 30 -66 30 -67 51 0 c27 0 50 3 50 8 0 4 -23 47 -50 96 -28 49
-50 91 -50 93 0 3 20 28 45 56 25 29 45 55 45 59 0 5 -24 8 -52 8 -52 -1 -53
-1 -93 -55 -22 -30 -43 -54 -47 -55 -5 0 -8 25 -8 55 l0 55 -40 0 c-24 0 -43
-5 -46 -13z"/>
<path d="M2534 2806 c-36 -16 -74 -61 -74 -87 0 -17 -8 -19 -65 -19 l-65 0 0
-40 0 -40 65 0 c53 0 65 -3 65 -16 0 -44 81 -104 142 -104 35 0 102 37 120 67
l17 28 1 -48 0 -48 43 3 42 3 5 80 5 79 54 -82 c54 -82 54 -82 97 -82 l44 0 0
160 0 160 -45 0 -44 0 -3 -86 -3 -86 -55 86 c-55 86 -55 86 -97 86 l-43 0 0
-47 -1 -48 -15 27 c-30 57 -123 83 -190 54z m97 -75 c20 -16 24 -29 24 -71 0
-43 -4 -55 -24 -71 -26 -21 -58 -18 -78 9 -21 26 -16 109 7 132 25 25 41 25
71 1z"/>
<path d="M3073 2805 c-5 -15 -2 -52 13 -162 5 -36 10 -43 29 -43 27 0 31 13
41 133 l7 87 -42 0 c-28 0 -44 -5 -48 -15z"/>
<path d="M7611 2692 c-43 -80 -421 -1101 -421 -1137 0 -27 -89 -260 -142 -373
-23 -47 -38 -67 -66 -82 l-37 -19 36 -1 c39 0 69 22 94 69 35 69 127 312 141
375 16 66 268 757 373 1019 28 70 51 137 51 148 0 24 -16 25 -29 1z"/>
<path d="M5145 2628 c-7 -20 -61 -287 -95 -473 -43 -228 -110 -698 -102 -706
11 -10 191 -79 205 -79 6 0 41 25 77 56 75 65 163 124 183 124 8 0 50 -46 93
-101 116 -152 192 -197 346 -206 51 -4 113 -1 150 7 172 33 370 157 523 328
l45 50 -112 93 c-62 50 -118 96 -125 101 -7 6 -34 -14 -81 -59 -38 -37 -105
-89 -148 -115 -75 -44 -184 -88 -219 -88 -36 0 -79 35 -145 120 -132 166 -206
209 -337 196 -54 -6 -63 -4 -63 10 0 29 50 313 86 487 19 93 36 174 37 180 2
9 -75 30 -291 82 -13 3 -24 0 -27 -7z"/>
<path d="M1890 2508 c0 -119 9 -198 22 -198 11 0 -2 282 -13 295 -5 5 -9 -36
-9 -97z"/>
<path d="M3080 2539 l0 -40 38 3 c35 3 37 5 40 41 l3 37 -40 0 -41 0 0 -41z"/>
<path d="M5577 2558 c-4 -13 -29 -135 -56 -273 -28 -137 -53 -260 -56 -273 -5
-19 -2 -23 11 -20 14 2 28 54 74 283 32 154 55 286 53 293 -8 19 -20 14 -26
-10z"/>
<path d="M563 2479 c7 -82 28 -202 33 -196 8 8 -19 242 -29 252 -6 6 -8 -13
-4 -56z"/>
<path d="M114 2433 c16 -176 96 -488 212 -823 65 -187 167 -451 176 -453 3 -1
109 81 234 183 325 264 344 280 344 288 0 4 -51 58 -114 121 l-114 114 -103
-87 c-57 -47 -106 -83 -110 -79 -10 10 -100 309 -133 439 -31 125 -66 306 -66
345 l0 29 -166 0 -167 0 7 -77z"/>
<path d="M3428 2253 c-19 -5 -25 -23 -9 -23 17 0 41 12 41 21 0 9 -4 10 -32 2z"/>
<path d="M2870 2173 c-80 -25 -146 -46 -148 -47 -1 -2 14 -61 33 -131 19 -71
55 -228 80 -349 57 -275 55 -266 70 -266 11 0 228 63 291 85 12 4 5 42 -77
414 -42 193 -85 342 -97 340 -4 -1 -72 -21 -152 -46z"/>
<path d="M1837 2179 c-10 -38 -8 -407 3 -520 17 -170 42 -319 56 -333 29 -29
175 -108 190 -102 29 11 305 199 349 238 25 22 54 53 66 70 l22 30 -114 114
-114 114 -62 -62 -62 -61 -7 39 c-4 21 -7 133 -8 249 l-1 212 -120 12 c-66 7
-136 15 -156 18 -32 4 -37 2 -42 -18z"/>
<path d="M2265 2087 c-7 -96 0 -171 16 -161 12 7 12 254 0 254 -5 0 -12 -42
-16 -93z"/>
<path d="M990 2092 c-74 -8 -137 -16 -139 -18 -3 -3 0 -9 5 -14 6 -6 60 -4
144 5 74 8 141 15 148 15 6 0 12 7 12 15 0 8 -8 14 -17 14 -10 -1 -79 -8 -153
-17z"/>
<path d="M4310 1766 c0 -79 -21 -193 -49 -266 l-21 -55 20 25 c38 45 59 105
69 195 6 52 17 95 26 105 21 23 19 27 -15 45 l-30 16 0 -65z"/>
<path d="M6681 1662 c-40 -97 -122 -315 -119 -317 16 -13 365 -142 370 -137 7
8 148 365 145 368 -3 2 -367 144 -370 144 -1 0 -13 -26 -26 -58z"/>
<path d="M1721 1615 c-1 -22 -6 -181 -11 -353 -4 -173 -11 -316 -14 -319 -3
-3 -103 -1 -223 6 -134 7 -220 8 -226 2 -12 -12 56 -19 270 -26 161 -5 174 -4
191 13 18 18 20 42 26 318 4 170 3 321 -2 349 l-10 50 -1 -40z"/>
<path d="M1110 1504 c-25 -25 -164 -146 -310 -267 -324 -269 -307 -254 -293
-268 17 -17 21 -13 329 244 311 259 327 274 322 311 -3 27 -3 27 -48 -20z"/>
<path d="M2610 1464 c-62 -63 -186 -158 -378 -289 -72 -49 -132 -93 -132 -97
0 -26 63 1 162 68 257 174 428 318 428 359 0 28 -25 15 -80 -41z"/>
<path d="M5288 1327 c-53 -45 -97 -85 -97 -89 -1 -5 9 -8 22 -8 13 0 56 27
102 65 44 36 84 65 88 65 12 0 4 43 -8 46 -5 2 -54 -34 -107 -79z"/>
<path d="M4176 1344 c-39 -62 -115 -135 -174 -167 -74 -40 -153 -57 -277 -58
-118 -1 -112 -13 14 -24 150 -14 308 41 398 139 92 100 106 120 96 135 -17 26
-28 22 -57 -25z"/>
<path d="M4827 1291 c-25 -38 -73 -98 -106 -134 -34 -35 -61 -67 -61 -71 0
-14 39 -5 64 15 14 11 56 60 93 107 37 48 71 88 74 90 3 1 14 9 24 16 18 13
17 15 -12 29 l-31 16 -45 -68z"/>
<path d="M3145 1319 c-55 -17 -137 -41 -182 -55 -80 -24 -107 -44 -60 -44 12
0 97 21 189 47 135 39 168 51 168 66 0 21 5 22 -115 -14z"/>
<path d="M6390 1293 c-120 -101 -292 -153 -504 -154 -96 -1 -116 -3 -96 -12
14 -6 81 -11 150 -11 191 1 331 40 456 129 53 38 61 48 57 70 -3 14 -6 25 -7
24 0 0 -26 -21 -56 -46z"/>
</g>
</svg>
